<svg xmlns="http://www.w3.org/2000/svg" width="3216" height="1352" viewBox="0 0 3216 1352" version="1.1"><path d="M 494.146 289.129 C 427.397 294.613, 377.630 322.897, 354.269 368.625 C 348.623 379.676, 345.016 389.186, 342.021 400.919 C 338.456 414.881, 339.694 420.774, 347.064 424.916 C 350.193 426.675, 356.849 427.675, 387.593 431.010 C 407.825 433.205, 426.361 435, 428.785 435 C 436.733 435, 441.116 429.982, 444.396 417.124 C 449.493 397.149, 465.610 381.343, 486.271 376.059 C 507.558 370.614, 527.131 373.585, 542.029 384.521 C 548.196 389.048, 553.641 397.286, 556.823 406.902 C 559.146 413.922, 559.370 416.259, 559.772 437.622 L 560.207 460.745 553.354 461.438 C 521.816 464.626, 489.921 468.436, 477 470.559 C 423.769 479.301, 391.530 493.351, 365.960 518.949 C 346.705 538.225, 335.880 558.387, 329.791 586.312 C 326.800 600.032, 326.525 635.496, 329.303 649.270 C 334.377 674.427, 344.223 693.977, 359.680 709.584 C 374.594 724.645, 393.228 734.413, 417 739.633 C 423.991 741.169, 429.761 741.499, 449.500 741.495 C 474.576 741.490, 480.908 740.832, 497.500 736.503 C 521.320 730.288, 542.703 717.285, 567.099 694.181 L 576.697 685.091 584.273 696.295 C 594.284 711.102, 602.057 720.170, 613.110 729.936 C 624.870 740.327, 629.568 741.708, 638.256 737.331 C 639.771 736.567, 650.123 727.968, 661.260 718.221 C 672.397 708.475, 686.799 696.036, 693.265 690.580 C 702.437 682.840, 705.260 679.864, 706.106 677.040 C 707.550 672.220, 706.005 666.618, 701.500 660.337 C 684.993 637.329, 679.940 628.358, 675.792 614.695 C 673.629 607.572, 673.601 606.502, 672.945 507.500 C 672.240 401.005, 672.103 397.986, 667.077 378.301 C 656.608 337.300, 624.256 308.085, 575.497 295.602 C 549.223 288.876, 522.808 286.774, 494.146 289.129 M 1533.500 289.013 C 1465.331 295.021, 1415.592 323.783, 1392.577 370.500 C 1384.422 387.054, 1377.775 409.984, 1379.333 416.189 C 1380.185 419.584, 1383.602 423.743, 1386.971 425.485 C 1389.810 426.953, 1458.579 435, 1468.287 435 C 1472.682 435, 1473.660 434.576, 1477.030 431.205 C 1479.743 428.492, 1481.292 425.714, 1482.465 421.455 C 1486.815 405.665, 1491.591 397.199, 1500.756 389.030 C 1512.048 378.965, 1527.090 373.738, 1545 373.655 C 1561.927 373.577, 1574.931 378.140, 1584.582 387.546 C 1595.608 398.292, 1598.909 409.676, 1599.721 439.750 C 1600.274 460.265, 1600.227 461, 1598.366 461 C 1594.342 461, 1539.218 467.130, 1526.159 469.030 C 1499.336 472.932, 1474.986 478.678, 1458.874 484.907 C 1406.162 505.287, 1374.420 544.310, 1367.378 597.388 C 1365.390 612.371, 1366.070 635.927, 1368.896 650.036 C 1379.018 700.555, 1412.210 732.645, 1462.500 740.528 C 1476.104 742.660, 1509.264 742.141, 1523.500 739.573 C 1553.672 734.130, 1579.193 720.198, 1605.626 694.739 L 1615.840 684.900 1623.867 696.700 C 1628.282 703.190, 1634.762 711.740, 1638.266 715.699 C 1644.603 722.859, 1657.415 734.879, 1661.793 737.771 C 1665.103 739.958, 1674.138 739.745, 1677.830 737.393 C 1679.464 736.352, 1689.058 728.279, 1699.150 719.453 C 1709.243 710.628, 1723.376 698.397, 1730.557 692.274 C 1743.830 680.958, 1746 678.238, 1746 672.921 C 1746 668.243, 1743.952 664.386, 1734.626 651.500 C 1724.561 637.593, 1717.895 624.828, 1714.781 613.500 C 1712.604 605.581, 1712.576 604.484, 1711.967 505 C 1711.307 397.229, 1711.325 397.625, 1705.955 376.500 C 1703.051 365.077, 1694.413 348.069, 1686.571 338.334 C 1666.436 313.338, 1633.573 297.073, 1590 290.540 C 1577.222 288.624, 1547.137 287.810, 1533.500 289.013 M 956.608 293.138 C 934.014 296.037, 915.665 304.288, 900.259 318.474 C 889.901 328.012, 882.079 338.882, 874.422 354.385 L 868 367.386 868 340.094 C 868 309.493, 867.703 307.909, 861.125 303.439 L 857.536 301 815.916 301 C 774.400 301, 774.287 301.006, 770.990 303.250 C 769.172 304.488, 766.743 306.770, 765.592 308.323 L 763.500 311.147 763.500 518.901 L 763.500 726.656 766.233 730.239 C 771.402 737.016, 772.249 737.119, 820.181 736.792 C 861.486 736.509, 862.945 736.434, 865.616 734.438 C 867.134 733.304, 869.304 731.134, 870.438 729.616 C 872.489 726.869, 872.503 726.175, 873.080 593.677 C 873.694 452.923, 873.670 453.619, 878.545 435.131 C 883.066 417.990, 892.134 405.017, 903.476 399.468 C 911.114 395.731, 922.116 393.703, 931.168 394.365 C 954.739 396.087, 967.844 409.624, 973.678 438.278 C 975.179 445.651, 975.411 461.036, 975.926 587.195 L 976.500 727.890 979.965 731.464 C 981.871 733.430, 985.138 735.499, 987.225 736.061 C 989.610 736.703, 1006.526 736.974, 1032.760 736.791 L 1074.500 736.500 1078.274 734.153 C 1086.095 729.291, 1085.482 740.313, 1085.647 601.500 C 1085.728 533.300, 1086.055 471.993, 1086.375 465.262 C 1087.182 448.293, 1090.117 434.391, 1095.008 424.372 C 1105.890 402.082, 1129.073 391.129, 1154.131 396.440 C 1170.675 399.947, 1180.812 410.151, 1185.714 428.231 C 1187.265 433.951, 1187.461 447.293, 1187.957 580.677 C 1188.498 726.232, 1188.509 726.866, 1190.559 729.677 C 1191.691 731.230, 1194.599 733.513, 1197.020 734.750 C 1201.378 736.977, 1201.855 737, 1243 737 C 1284.145 737, 1284.622 736.977, 1288.980 734.750 C 1291.401 733.512, 1294.309 731.229, 1295.441 729.677 C 1297.500 726.853, 1297.500 726.852, 1297.500 560.177 C 1297.500 373.628, 1297.906 384.823, 1290.308 361.774 C 1282.456 337.951, 1264.857 317.876, 1241.044 305.577 C 1230.877 300.326, 1217.836 295.848, 1207 293.887 C 1195.961 291.890, 1171.499 292.169, 1161 294.412 C 1123.671 302.388, 1095.759 324.072, 1080.163 357.211 C 1078.148 361.492, 1076.263 364.995, 1075.973 364.997 C 1075.683 364.999, 1073.504 361.063, 1071.131 356.250 C 1058.206 330.039, 1040.375 311.050, 1019.735 301.513 C 1002.061 293.347, 978.908 290.275, 956.608 293.138 M 2302.589 293.028 C 2229.829 301.361, 2176.752 351.381, 2154.494 432.592 C 2146.658 461.183, 2143.437 491.124, 2144.304 527.318 C 2145.726 586.725, 2158.589 631.954, 2185.735 673 C 2195.588 687.900, 2216.065 708.697, 2229.953 717.912 C 2252.214 732.682, 2274.272 740.761, 2301.379 744.073 C 2315.049 745.742, 2343.441 744.704, 2356.446 742.058 C 2378.356 737.600, 2401.382 727.722, 2418.981 715.230 C 2430.365 707.150, 2448.376 689.589, 2456.845 678.313 C 2480.004 647.478, 2494.964 609.518, 2501.698 564.500 C 2504.475 545.935, 2504.201 492.914, 2501.225 473.278 C 2493.612 423.030, 2477.102 382.188, 2452.002 351.512 C 2426.872 320.799, 2392.690 301.191, 2352.500 294.434 C 2341.508 292.586, 2313.367 291.793, 2302.589 293.028 M 2757.500 293.066 C 2732.854 296.431, 2712.670 306.646, 2697.089 323.641 C 2688.392 333.127, 2681.153 344.341, 2673.556 360.098 L 2667.095 373.500 2666.798 342 C 2666.507 311.255, 2666.447 310.425, 2664.270 307.373 C 2659.749 301.035, 2659.475 301, 2614.549 301 C 2570.631 301, 2571.184 300.937, 2566 306.486 L 2563.500 309.161 2563.500 518.525 L 2563.500 727.889 2566.956 731.454 C 2568.856 733.415, 2572.006 735.463, 2573.956 736.004 C 2578.739 737.333, 2656.356 737.307, 2661.152 735.975 C 2663.263 735.388, 2666.291 733.313, 2668.333 731.053 L 2671.863 727.146 2672.272 601.323 C 2672.628 492.160, 2672.896 474.074, 2674.294 464.730 C 2676.590 449.388, 2680.371 436.060, 2685.493 425.246 C 2696.134 402.784, 2716.548 390.659, 2738.209 393.936 C 2758.325 396.980, 2771.080 410.925, 2776.064 435.323 C 2779.536 452.318, 2779.970 470.525, 2779.989 600 C 2780.007 725.201, 2780.028 726.534, 2782.030 729.818 C 2783.258 731.832, 2785.806 733.911, 2788.512 735.109 C 2792.760 736.988, 2794.996 737.067, 2835.736 736.791 C 2877.962 736.504, 2878.545 736.472, 2882.080 734.274 C 2884.049 733.049, 2886.440 730.574, 2887.393 728.774 C 2889.022 725.698, 2889.103 715.990, 2888.728 568.500 C 2888.307 402.496, 2888.406 406.033, 2883.454 381.307 C 2878.444 356.298, 2870.604 340.116, 2856.046 324.739 C 2840.320 308.129, 2823.851 299.081, 2800.971 294.483 C 2791.633 292.606, 2766.799 291.796, 2757.500 293.066 M 1814.299 301.960 C 1807.615 306.034, 1807.500 306.748, 1807.500 344 C 1807.500 380.796, 1807.492 380.741, 1813.834 385.500 C 1816.426 387.444, 1818.463 387.514, 1887.171 388 L 1957.843 388.500 1879.404 501 C 1836.263 562.875, 1799.850 615.829, 1798.488 618.676 C 1793.431 629.244, 1793.031 633.424, 1793.015 675.800 C 1792.999 718.849, 1792.920 718.231, 1799.041 723.381 C 1803.843 727.421, 1808.189 726.927, 1820.007 720.996 C 1869.052 696.384, 1929.293 686.437, 1986 693.586 C 2019.875 697.856, 2048.465 706.177, 2079.163 720.700 C 2092.722 727.115, 2095.954 727.246, 2101.589 721.611 C 2106.798 716.402, 2107.154 713.338, 2106.811 676.668 C 2106.507 644.249, 2106.446 643.382, 2104.130 638.258 C 2102.827 635.375, 2099.959 631.389, 2097.757 629.399 C 2091.994 624.193, 2070.072 613.870, 2052.571 608.122 C 2026.091 599.425, 2003.585 595.602, 1967.594 593.686 L 1945.306 592.500 2018.213 488.500 C 2058.313 431.300, 2092.781 381.148, 2094.810 377.050 L 2098.500 369.601 2098.500 339.550 C 2098.500 309.687, 2098.486 309.480, 2096.171 306.235 C 2091.400 299.545, 2101.855 300, 1952.800 300.004 C 1820.372 300.007, 1817.432 300.049, 1814.299 301.960 M 2315 376.623 C 2287.330 381.995, 2271.863 404.390, 2264.794 449.318 C 2262.723 462.483, 2262.561 466.871, 2262.531 510.500 C 2262.499 558.937, 2262.987 567.671, 2267.002 590.533 C 2272.415 621.361, 2283.424 643.501, 2298.036 652.945 C 2306.506 658.420, 2314.702 660.401, 2326.212 659.757 C 2332.175 659.423, 2337.506 658.472, 2341.104 657.101 C 2362.325 649.014, 2375.898 626.755, 2382.020 590 C 2385.185 570.998, 2385.993 557.160, 2385.997 521.895 C 2386 487.437, 2385.152 470.788, 2382.412 451.500 C 2375.996 406.332, 2364.599 385.956, 2341.776 378.853 C 2335.692 376.960, 2319.999 375.653, 2315 376.623 M 542.500 525.655 C 509.610 528.278, 489.479 533.619, 473.791 543.885 C 453.562 557.124, 443.656 577.129, 443.776 604.500 C 443.903 633.207, 455.552 652.858, 476.151 659.115 C 485.214 661.867, 500.456 661.446, 509.389 658.196 C 532.080 649.941, 550.318 625.663, 557.238 594.500 C 558.910 586.967, 559.316 580.568, 559.725 555.250 L 560.214 525 553.357 525.168 C 549.586 525.261, 544.700 525.480, 542.500 525.655 M 1575.500 526.094 C 1535.516 529.347, 1508.759 541.095, 1494.856 561.500 C 1485.834 574.742, 1482.471 588.173, 1483.231 607.927 C 1483.623 618.094, 1484.234 622.031, 1486.426 628.500 C 1491.289 642.858, 1498.715 651.626, 1510.820 657.304 C 1516.510 659.973, 1518.918 660.495, 1527.067 660.828 C 1545.610 661.584, 1557.296 656.875, 1571.090 643.086 C 1592.860 621.326, 1599.964 596.542, 1599.991 542.250 L 1600 525 1592.750 525.140 C 1588.763 525.217, 1581 525.646, 1575.500 526.094" stroke="none" fill="#242c3c" fill-rule="evenodd"/><path d="M 1928.500 754.681 C 1901.213 756.431, 1867.548 763.514, 1844.234 772.411 C 1825.121 779.704, 1802.183 792.735, 1795.570 800.054 C 1791.250 804.836, 1790.623 810.639, 1794.080 813.860 C 1797.227 816.792, 1799.747 816.904, 1817.311 814.890 C 1863.523 809.592, 1877.001 808.670, 1909.500 808.586 C 1935.996 808.518, 1943.088 808.804, 1950.730 810.248 C 1968.211 813.552, 1975.597 817.558, 1979.777 826 C 1982.256 831.007, 1982.496 832.487, 1982.452 842.500 C 1982.336 868.842, 1971.917 905.958, 1945.618 973.700 C 1940.878 985.910, 1937 996.620, 1937 997.500 C 1937 999.948, 1939.731 1004.683, 1941.545 1005.379 C 1948.280 1007.963, 1954.866 1004.269, 1969.345 989.784 C 1993.088 966.033, 2010.697 938.259, 2025.319 901.500 C 2040.838 862.485, 2049.518 817.783, 2046.930 790.210 C 2045.345 773.320, 2041.413 768.766, 2023.504 763.075 C 2001.037 755.937, 1962.298 752.514, 1928.500 754.681 M 692.763 782.508 C 689.585 784.299, 687 788.777, 687 792.490 C 687 797.768, 690.833 802.581, 704.558 814.535 C 792.214 890.884, 888.361 949.472, 995 991.518 C 1097.662 1031.995, 1203.842 1054.433, 1319.500 1060.091 C 1345.845 1061.379, 1407.450 1060.781, 1430 1059.017 C 1538.208 1050.555, 1636.880 1028.679, 1731.947 992.075 C 1797.778 966.727, 1865.323 930.715, 1912.817 895.642 C 1928.104 884.353, 1931.758 873.868, 1924.093 863.287 C 1920.404 858.195, 1915.117 855.695, 1906.984 855.199 C 1900.719 854.816, 1899.662 855.129, 1879.484 863.324 C 1760.547 911.630, 1636.030 942.567, 1508.500 955.498 C 1435.375 962.913, 1357.589 963.928, 1283 958.440 C 1084.532 943.839, 888.023 885.128, 721.523 790.689 C 708.267 783.170, 704.691 781.571, 700.523 781.296 C 697.297 781.084, 694.521 781.517, 692.763 782.508" stroke="none" fill="#fc9c04" fill-rule="evenodd"/></svg>