<svg xmlns="http://www.w3.org/2000/svg" width="32" height="32" viewBox="0 0 32 32" version="1.1"><path d="M 9.500 5.536 C 5.078 7.782, 2.691 10.923, 4.107 12.629 C 5.855 14.735, 27.838 14.586, 28.653 12.463 C 29.951 9.081, 22.209 3.994, 15.782 4.006 C 13.977 4.010, 11.150 4.698, 9.500 5.536 M 15 7 C 15 7.550, 15.450 8, 16 8 C 16.550 8, 17 7.550, 17 7 C 17 6.450, 16.550 6, 16 6 C 15.450 6, 15 6.450, 15 7 M 8 9 C 8 9.550, 8.450 10, 9 10 C 9.550 10, 10 9.550, 10 9 C 10 8.450, 9.550 8, 9 8 C 8.450 8, 8 8.450, 8 9 M 22 9 C 22 9.550, 22.450 10, 23 10 C 23.550 10, 24 9.550, 24 9 C 24 8.450, 23.550 8, 23 8 C 22.450 8, 22 8.450, 22 9 M 3.180 18.250 C 3.489 20.424, 3.911 20.509, 15.603 20.780 C 25.338 21.004, 27.947 20.769, 28.939 19.573 C 31.375 16.638, 29.043 16, 15.871 16 C 2.951 16, 2.863 16.016, 3.180 18.250 M 3.015 23.750 C 3.074 26.633, 4.976 27.059, 16.567 26.783 C 26.982 26.536, 28.518 26.280, 28.811 24.750 C 29.117 23.155, 27.985 23, 16.073 23 C 8.883 23, 3.007 23.337, 3.015 23.750" stroke="none" fill="#a22222" fill-rule="evenodd"/><path d="M 0 16.025 L 0 32.050 16.250 31.775 L 32.500 31.500 32.775 15.750 L 33.051 0 16.525 0 L 0 0 0 16.025 M 0.405 16.500 C 0.406 25.300, 0.559 28.766, 0.745 24.203 C 0.930 19.639, 0.929 12.439, 0.742 8.203 C 0.555 3.966, 0.404 7.700, 0.405 16.500 M 9.500 5.536 C 5.078 7.782, 2.691 10.923, 4.107 12.629 C 5.855 14.735, 27.838 14.586, 28.653 12.463 C 29.951 9.081, 22.209 3.994, 15.782 4.006 C 13.977 4.010, 11.150 4.698, 9.500 5.536 M 15 7 C 15 7.550, 15.450 8, 16 8 C 16.550 8, 17 7.550, 17 7 C 17 6.450, 16.550 6, 16 6 C 15.450 6, 15 6.450, 15 7 M 8 9 C 8 9.550, 8.450 10, 9 10 C 9.550 10, 10 9.550, 10 9 C 10 8.450, 9.550 8, 9 8 C 8.450 8, 8 8.450, 8 9 M 22 9 C 22 9.550, 22.450 10, 23 10 C 23.550 10, 24 9.550, 24 9 C 24 8.450, 23.550 8, 23 8 C 22.450 8, 22 8.450, 22 9 M 3.180 18.250 C 3.489 20.424, 3.911 20.509, 15.603 20.780 C 25.338 21.004, 27.947 20.769, 28.939 19.573 C 31.375 16.638, 29.043 16, 15.871 16 C 2.951 16, 2.863 16.016, 3.180 18.250 M 3.015 23.750 C 3.074 26.633, 4.976 27.059, 16.567 26.783 C 26.982 26.536, 28.518 26.280, 28.811 24.750 C 29.117 23.155, 27.985 23, 16.073 23 C 8.883 23, 3.007 23.337, 3.015 23.750" stroke="none" fill="#ece6e6" fill-rule="evenodd"/></svg>