<svg xmlns="http://www.w3.org/2000/svg" width="200" height="200" viewBox="0 0 200 200" version="1.1"><path d="M 85.511 37.750 C 83.333 51.836, 79.406 60.354, 70.897 69.451 C 63.951 76.877, 52.340 83.437, 44.259 84.502 C 41.642 84.847, 38.262 85.360, 36.750 85.644 L 34 86.159 34 99.854 L 34 113.549 41.750 114.766 C 52.565 116.464, 62.655 121.612, 70.395 129.380 C 79.070 138.088, 83.229 147.125, 85.522 162.250 L 86.091 166 100.045 166 L 114 166 114 163.160 C 114 158.359, 117.672 145.769, 120.609 140.500 C 124.186 134.084, 134.084 124.186, 140.500 120.609 C 145.769 117.672, 158.359 114, 163.160 114 L 166 114 166 100.107 C 166 84.839, 166.069 85, 159.577 85 C 157.785 85, 154.334 84.399, 151.909 83.664 C 132.171 77.682, 117.936 61.569, 114.761 41.617 L 113.549 34 99.820 34 L 86.091 34 85.511 37.750 M 89.787 90.252 L 80.073 100.270 82.787 102.376 C 87.926 106.366, 93.507 111.824, 96.407 115.695 L 99.314 119.575 109.407 109.537 L 119.500 99.500 113.500 94.433 C 110.200 91.646, 105.986 87.371, 104.137 84.933 C 102.287 82.495, 100.487 80.440, 100.137 80.367 C 99.786 80.294, 95.129 84.742, 89.787 90.252" stroke="none" fill="#f8fafa" fill-rule="evenodd"/><path d="M -0 100.005 L -0 200.010 100.250 199.755 L 200.500 199.500 200.755 99.750 L 201.010 0 100.505 0 L 0 0 -0 100.005 M 0.481 100.500 C 0.481 155.500, 0.602 178.147, 0.750 150.826 C 0.898 123.506, 0.898 78.506, 0.750 50.826 C 0.602 23.147, 0.481 45.500, 0.481 100.500 M 85.511 37.750 C 83.333 51.836, 79.406 60.354, 70.897 69.451 C 63.951 76.877, 52.340 83.437, 44.259 84.502 C 41.642 84.847, 38.262 85.360, 36.750 85.644 L 34 86.159 34 99.854 L 34 113.549 41.750 114.766 C 52.565 116.464, 62.655 121.612, 70.395 129.380 C 79.070 138.088, 83.229 147.125, 85.522 162.250 L 86.091 166 100.045 166 L 114 166 114 163.160 C 114 158.359, 117.672 145.769, 120.609 140.500 C 124.186 134.084, 134.084 124.186, 140.500 120.609 C 145.769 117.672, 158.359 114, 163.160 114 L 166 114 166 100.107 C 166 84.839, 166.069 85, 159.577 85 C 157.785 85, 154.334 84.399, 151.909 83.664 C 132.171 77.682, 117.936 61.569, 114.761 41.617 L 113.549 34 99.820 34 L 86.091 34 85.511 37.750 M 89.787 90.252 L 80.073 100.270 82.787 102.376 C 87.926 106.366, 93.507 111.824, 96.407 115.695 L 99.314 119.575 109.407 109.537 L 119.500 99.500 113.500 94.433 C 110.200 91.646, 105.986 87.371, 104.137 84.933 C 102.287 82.495, 100.487 80.440, 100.137 80.367 C 99.786 80.294, 95.129 84.742, 89.787 90.252" stroke="none" fill="#0a3d69" fill-rule="evenodd"/></svg>