<svg xmlns="http://www.w3.org/2000/svg" width="1566" height="1558" viewBox="0 0 1566 1558" version="1.1"><path d="M 543.500 3.003 C 467.847 12.063, 397.245 41.698, 328.984 93.046 C 280.515 129.505, 232.587 179.120, 191.375 235.500 C 110.285 346.432, 47.043 490.806, 9.588 650.500 C 4.216 673.401, 0 694.343, -0 698.121 C -0 699.643, 1.086 702.151, 2.413 703.694 L 4.827 706.500 231.350 706.756 L 457.873 707.013 460.552 704.709 C 463.173 702.455, 463.290 701.842, 466.056 675.838 C 487.367 475.533, 532.734 305.922, 596.677 187.500 C 625.671 133.802, 655.026 92.922, 692.250 54.402 L 703 43.278 703 30.842 L 703 18.407 689.067 14.659 C 672.746 10.269, 650.588 5.836, 633 3.442 C 613.302 0.761, 564.233 0.520, 543.500 3.003 M 695.931 134.239 C 627.317 220.520, 576.717 344.221, 543.894 505.924 C 535.180 548.851, 528.434 590.898, 529.549 595.337 C 530.322 598.417, 532.669 600.637, 536.043 601.479 C 539.692 602.389, 543.694 598.916, 545.009 593.696 C 547.282 584.682, 554.451 561.396, 562.157 538 C 605.557 406.237, 649.205 317.623, 698.257 261.692 L 703.015 256.267 702.757 191.123 L 702.500 125.978 695.931 134.239 M 1105.126 852.750 C 1102.548 855.356, 1102.313 856.417, 1100.640 873 C 1096.014 918.841, 1087.176 981.072, 1078.469 1029.117 C 1039.809 1242.440, 971.556 1401.071, 876.251 1499.102 L 864 1511.704 864 1525.274 L 864 1538.845 867.250 1539.880 C 882.155 1544.629, 913.969 1551.048, 935.500 1553.652 C 954.068 1555.897, 1005.942 1556.211, 1021 1554.169 C 1070.082 1547.514, 1109.642 1535.888, 1152.500 1515.524 C 1186.356 1499.438, 1227.561 1472.638, 1258.500 1446.581 C 1381.819 1342.724, 1479.685 1177.109, 1538.646 972.500 C 1551.063 929.409, 1566.661 862.287, 1565.493 856.969 C 1565.137 855.349, 1563.695 853.119, 1562.288 852.012 C 1559.742 850.009, 1558.672 850, 1333.788 850 L 1107.846 850 1105.126 852.750 M 1024.217 957.013 C 1022.979 958.166, 1020.941 962.754, 1019.443 967.763 C 973.946 1119.860, 921.859 1233.166, 870.762 1291.196 L 863.985 1298.891 864.243 1364.165 L 864.500 1429.440 871.538 1420.470 C 935.658 1338.755, 984.031 1223.571, 1016.414 1075.500 C 1026.336 1030.130, 1037.529 966.686, 1036.466 961.844 C 1035.739 958.535, 1031.652 955, 1028.554 955 C 1027.357 955, 1025.405 955.906, 1024.217 957.013" stroke="none" fill="#fc831c" fill-rule="evenodd"/><path d="M 930 1.505 C 858.878 8.730, 799.219 34.874, 745 82.578 C 733.284 92.887, 713.524 112.788, 706.750 121.103 L 703 125.706 703 190.921 L 703 256.136 711.006 248.872 C 733.980 228.026, 752.965 218.304, 775.676 215.754 C 784.326 214.783, 787.267 214.862, 795.277 216.281 C 818.133 220.331, 835.471 230.469, 858.048 252.986 C 873.166 268.062, 880.835 277.544, 894.461 298 C 942.571 370.229, 990.583 490.993, 1035 651.500 C 1047.541 696.817, 1049.274 702.358, 1051.663 704.750 L 1053.909 707 1307.031 707 L 1560.154 707 1563.077 704.077 C 1564.804 702.350, 1566 700.093, 1566 698.562 C 1566 695.310, 1558.844 663.593, 1550.343 629.165 C 1505.093 445.917, 1426.698 287.290, 1325.485 174.181 C 1310.448 157.377, 1280.456 127.832, 1265 114.598 C 1188.318 48.939, 1103.691 10.411, 1016.621 1.519 C 998.373 -0.344, 948.282 -0.353, 930 1.505 M 703 30.927 C 703 42.462, 703.093 43.020, 704.863 42.073 C 707.723 40.543, 712.897 34.258, 713.599 31.462 C 714.811 26.634, 710.975 20.774, 705.750 19.470 L 703 18.783 703 30.927 M 5.357 850.992 C 2.260 852.241, -0 855.942, 0 859.762 C 0 867.935, 17.251 940.160, 28.480 979 C 35.440 1003.075, 51.647 1051.909, 60.009 1074 C 112.659 1213.094, 181.792 1326.017, 265.432 1409.543 C 340.883 1484.892, 422.882 1531.919, 509.440 1549.485 C 542.681 1556.231, 568.142 1558.119, 609 1556.870 C 661.982 1555.249, 702.278 1545.830, 745.500 1524.965 C 784.742 1506.020, 823.517 1475.904, 855.847 1439.259 L 864 1430.017 864 1364.331 L 864 1298.645 855.750 1306.666 C 818.934 1342.461, 780.435 1350.832, 742.796 1331.227 C 667.880 1292.207, 595.952 1144.877, 524.455 884 C 517.963 860.311, 515.614 853.109, 513.937 851.750 C 511.894 850.093, 498.337 850.003, 259.639 850.063 C 120.314 850.098, 6.541 850.514, 5.357 850.992 M 858.191 1517.391 C 852.468 1523.443, 851.217 1526.695, 852.978 1530.947 C 854.474 1534.559, 856.563 1536.403, 860.750 1537.806 L 864 1538.896 864 1525.448 C 864 1518.052, 863.840 1512, 863.645 1512 C 863.450 1512, 860.996 1514.426, 858.191 1517.391" stroke="none" fill="#f23c23" fill-rule="evenodd"/></svg>