<svg xmlns="http://www.w3.org/2000/svg" width="228" height="210" viewBox="0 0 228 210" version="1.1"><path d="M 80 53.500 C 80.685 54.325, 82.071 55, 83.080 55 C 84.678 55, 84.954 56.004, 85.208 62.739 C 85.448 69.099, 85.804 70.536, 87.207 70.804 C 88.678 71.085, 88.954 70.057, 89.207 63.357 C 89.482 56.061, 89.649 55.549, 91.926 55.015 C 93.260 54.701, 94.535 53.895, 94.759 53.222 C 95.058 52.325, 92.982 52, 86.961 52 C 79.780 52, 78.911 52.187, 80 53.500 M 101.944 54.105 C 100.633 56.554, 96 69.135, 96 70.246 C 96 72.098, 99.157 70.750, 100.204 68.451 C 101.181 66.308, 101.935 65.949, 104.933 66.201 C 107.504 66.416, 108.776 67.128, 109.487 68.750 C 110.030 69.987, 111.268 71, 112.237 71 C 114.149 71, 114.519 68.994, 113.117 66.236 C 112.631 65.281, 111.793 63.375, 111.255 62 C 108.034 53.765, 106.938 52, 105.051 52 C 103.962 52, 102.563 52.947, 101.944 54.105 M 117 61.427 L 117 71 122.583 71 C 126.602 71, 128.052 70.650, 127.756 69.750 C 127.531 69.063, 125.937 68.360, 124.214 68.190 L 121.082 67.879 120.791 60.201 C 120.549 53.820, 120.204 52.465, 118.750 52.188 C 117.182 51.888, 117 52.849, 117 61.427 M 130.424 53.338 C 130.141 54.075, 130.043 58.237, 130.205 62.588 C 130.437 68.823, 130.818 70.500, 132 70.500 C 132.893 70.500, 133.628 69.387, 133.816 67.750 C 134.222 64.227, 135.218 64.282, 138.347 68 C 140.716 70.816, 144 72.057, 144 70.138 C 144 69.663, 142.650 67.576, 141 65.500 C 139.350 63.424, 138 61.196, 138 60.550 C 138 59.903, 139.350 58.081, 141 56.500 C 142.650 54.919, 144 53.260, 144 52.813 C 144 51.067, 140.228 52.128, 138 54.500 C 136.708 55.875, 135.280 57, 134.826 57 C 134.372 57, 134 55.875, 134 54.500 C 134 51.819, 131.339 50.954, 130.424 53.338 M 103.468 60.101 C 102.697 62.530, 103.964 64.258, 105.721 63.173 C 106.999 62.382, 106.347 58, 104.951 58 C 104.502 58, 103.835 58.945, 103.468 60.101 M 87.457 89.250 C 87.158 90.030, 87.046 94.455, 87.207 99.084 L 87.500 107.500 92.750 107.500 C 98.558 107.500, 99.957 105.785, 94.789 105 L 91.500 104.500 91 96.579 C 90.680 91.512, 90.050 88.509, 89.251 88.246 C 88.563 88.019, 87.756 88.471, 87.457 89.250 M 101.655 88.750 C 101.239 89.423, 100.640 103.649, 100.897 106.750 C 100.953 107.438, 101.675 108, 102.500 108 C 103.733 108, 104 106.222, 104 98 C 104 89.209, 103.235 86.191, 101.655 88.750 M 109.457 89.250 C 109.158 90.030, 109.046 94.455, 109.207 99.084 C 109.439 105.742, 109.811 107.500, 110.990 107.500 C 111.857 107.500, 112.693 106.270, 112.990 104.557 C 113.609 100.983, 114.327 101.047, 117.627 104.968 C 120.166 107.986, 123 109.002, 123 106.894 C 123 106.286, 121.650 104.083, 120 102 C 118.350 99.917, 117 97.886, 117 97.488 C 117 97.090, 118.385 95.187, 120.077 93.259 C 122.272 90.759, 122.846 89.446, 122.079 88.679 C 121.312 87.912, 120.058 88.521, 117.704 90.802 C 113.696 94.687, 113.220 94.738, 112.816 91.327 C 112.466 88.368, 110.308 87.034, 109.457 89.250 M 126.080 89.403 C 125.342 90.293, 125.023 93.859, 125.208 99.153 L 125.500 107.500 131.250 107.500 C 137.700 107.500, 139.107 105.770, 133.283 105 C 130.048 104.572, 129.500 104.138, 129.500 102 C 129.500 99.901, 130.031 99.449, 132.811 99.182 C 136.835 98.796, 136.579 96.717, 132.418 95.990 C 130.342 95.628, 129.500 94.906, 129.500 93.490 C 129.500 91.912, 130.277 91.436, 133.250 91.190 C 135.703 90.987, 137 90.381, 137 89.440 C 137 87.472, 127.709 87.441, 126.080 89.403 M 67.246 126.154 C 64.288 129.112, 66.469 134.620, 71.273 136.325 C 73.605 137.153, 74.639 139.987, 72.982 141.011 C 72.261 141.457, 70.171 141.577, 68.336 141.280 C 64.613 140.676, 63.778 142.276, 66.934 143.965 C 72.131 146.746, 78.299 143.733, 77.806 138.654 C 77.566 136.176, 76.697 135.071, 73.753 133.500 C 68.850 130.884, 68.550 127.704, 73.250 128.175 C 75.617 128.412, 76.500 128.092, 76.500 127 C 76.500 125.066, 69.017 124.383, 67.246 126.154 M 81.484 128.250 C 81.151 130.037, 81.018 134.196, 81.189 137.490 C 81.436 142.252, 81.859 143.549, 83.250 143.814 C 84.747 144.099, 85 143.341, 85 138.573 C 85 135.508, 85.407 133, 85.905 133 C 86.403 133, 87.978 134.993, 89.406 137.429 C 92.764 143.161, 94.708 145.049, 96.529 144.351 C 98.622 143.547, 98.696 125, 96.607 125 C 94.748 125, 94.006 127.202, 93.969 132.832 L 93.938 137.500 91.545 133.500 C 87.467 126.682, 85.974 125, 83.999 125 C 82.637 125, 81.917 125.931, 81.484 128.250 M 104.455 127.455 C 102.582 129.327, 102 130.967, 102 134.373 C 102 140.251, 102.681 141.784, 106.072 143.537 C 114.584 147.939, 122.764 140.637, 120.024 131.083 C 118.765 126.693, 116.399 125.070, 111.205 125.032 C 107.950 125.008, 106.314 125.595, 104.455 127.455 M 127.750 126.080 C 126.787 126.641, 125.325 128.405, 124.500 130 C 119.782 139.123, 128.326 148.076, 137.552 143.677 C 143.177 140.994, 144.307 132.330, 139.694 127.250 C 137.470 124.800, 131.031 124.169, 127.750 126.080 M 146 134.500 C 146 142.278, 146.272 144, 147.500 144 C 148.481 144, 149 143.018, 149 141.158 C 149 138.711, 149.553 138.151, 152.984 137.123 C 162.269 134.341, 160.355 125, 150.500 125 L 146 125 146 134.500 M 107.750 129.080 C 106.500 129.808, 106 131.365, 106 134.527 C 106 138.113, 106.462 139.257, 108.433 140.548 C 114.200 144.327, 120.005 135.005, 115 130 C 112.808 127.808, 110.448 127.509, 107.750 129.080 M 129.637 129.506 C 127.298 131.845, 126.708 134.882, 127.991 137.978 C 129.416 141.418, 132.662 142.452, 135.728 140.443 C 138.796 138.432, 139.028 130.620, 136.066 129.035 C 133.378 127.597, 131.401 127.742, 129.637 129.506 M 149.362 129.500 C 148.464 131.839, 149.731 134, 152 134 C 154.544 134, 155.651 131.489, 153.989 129.487 C 152.402 127.574, 150.098 127.580, 149.362 129.500" stroke="none" fill="#444444" fill-rule="evenodd"/><path d="M -0 105.004 L -0 210.008 114.250 209.754 L 228.500 209.500 228.755 104.750 L 229.009 0 114.505 0 L 0 0 -0 105.004 M 0.482 105.500 C 0.482 163.250, 0.602 186.728, 0.750 157.673 C 0.897 128.619, 0.897 81.369, 0.750 52.673 C 0.602 23.978, 0.482 47.750, 0.482 105.500 M 80 53.500 C 80.685 54.325, 82.071 55, 83.080 55 C 84.678 55, 84.954 56.004, 85.208 62.739 C 85.448 69.099, 85.804 70.536, 87.207 70.804 C 88.678 71.085, 88.954 70.057, 89.207 63.357 C 89.482 56.061, 89.649 55.549, 91.926 55.015 C 93.260 54.701, 94.535 53.895, 94.759 53.222 C 95.058 52.325, 92.982 52, 86.961 52 C 79.780 52, 78.911 52.187, 80 53.500 M 101.944 54.105 C 100.633 56.554, 96 69.135, 96 70.246 C 96 72.098, 99.157 70.750, 100.204 68.451 C 101.181 66.308, 101.935 65.949, 104.933 66.201 C 107.504 66.416, 108.776 67.128, 109.487 68.750 C 110.030 69.987, 111.268 71, 112.237 71 C 114.149 71, 114.519 68.994, 113.117 66.236 C 112.631 65.281, 111.793 63.375, 111.255 62 C 108.034 53.765, 106.938 52, 105.051 52 C 103.962 52, 102.563 52.947, 101.944 54.105 M 117 61.427 L 117 71 122.583 71 C 126.602 71, 128.052 70.650, 127.756 69.750 C 127.531 69.063, 125.937 68.360, 124.214 68.190 L 121.082 67.879 120.791 60.201 C 120.549 53.820, 120.204 52.465, 118.750 52.188 C 117.182 51.888, 117 52.849, 117 61.427 M 130.424 53.338 C 130.141 54.075, 130.043 58.237, 130.205 62.588 C 130.437 68.823, 130.818 70.500, 132 70.500 C 132.893 70.500, 133.628 69.387, 133.816 67.750 C 134.222 64.227, 135.218 64.282, 138.347 68 C 140.716 70.816, 144 72.057, 144 70.138 C 144 69.663, 142.650 67.576, 141 65.500 C 139.350 63.424, 138 61.196, 138 60.550 C 138 59.903, 139.350 58.081, 141 56.500 C 142.650 54.919, 144 53.260, 144 52.813 C 144 51.067, 140.228 52.128, 138 54.500 C 136.708 55.875, 135.280 57, 134.826 57 C 134.372 57, 134 55.875, 134 54.500 C 134 51.819, 131.339 50.954, 130.424 53.338 M 103.468 60.101 C 102.697 62.530, 103.964 64.258, 105.721 63.173 C 106.999 62.382, 106.347 58, 104.951 58 C 104.502 58, 103.835 58.945, 103.468 60.101 M 87.457 89.250 C 87.158 90.030, 87.046 94.455, 87.207 99.084 L 87.500 107.500 92.750 107.500 C 98.558 107.500, 99.957 105.785, 94.789 105 L 91.500 104.500 91 96.579 C 90.680 91.512, 90.050 88.509, 89.251 88.246 C 88.563 88.019, 87.756 88.471, 87.457 89.250 M 101.655 88.750 C 101.239 89.423, 100.640 103.649, 100.897 106.750 C 100.953 107.438, 101.675 108, 102.500 108 C 103.733 108, 104 106.222, 104 98 C 104 89.209, 103.235 86.191, 101.655 88.750 M 109.457 89.250 C 109.158 90.030, 109.046 94.455, 109.207 99.084 C 109.439 105.742, 109.811 107.500, 110.990 107.500 C 111.857 107.500, 112.693 106.270, 112.990 104.557 C 113.609 100.983, 114.327 101.047, 117.627 104.968 C 120.166 107.986, 123 109.002, 123 106.894 C 123 106.286, 121.650 104.083, 120 102 C 118.350 99.917, 117 97.886, 117 97.488 C 117 97.090, 118.385 95.187, 120.077 93.259 C 122.272 90.759, 122.846 89.446, 122.079 88.679 C 121.312 87.912, 120.058 88.521, 117.704 90.802 C 113.696 94.687, 113.220 94.738, 112.816 91.327 C 112.466 88.368, 110.308 87.034, 109.457 89.250 M 126.080 89.403 C 125.342 90.293, 125.023 93.859, 125.208 99.153 L 125.500 107.500 131.250 107.500 C 137.700 107.500, 139.107 105.770, 133.283 105 C 130.048 104.572, 129.500 104.138, 129.500 102 C 129.500 99.901, 130.031 99.449, 132.811 99.182 C 136.835 98.796, 136.579 96.717, 132.418 95.990 C 130.342 95.628, 129.500 94.906, 129.500 93.490 C 129.500 91.912, 130.277 91.436, 133.250 91.190 C 135.703 90.987, 137 90.381, 137 89.440 C 137 87.472, 127.709 87.441, 126.080 89.403 M 67.246 126.154 C 64.288 129.112, 66.469 134.620, 71.273 136.325 C 73.605 137.153, 74.639 139.987, 72.982 141.011 C 72.261 141.457, 70.171 141.577, 68.336 141.280 C 64.613 140.676, 63.778 142.276, 66.934 143.965 C 72.131 146.746, 78.299 143.733, 77.806 138.654 C 77.566 136.176, 76.697 135.071, 73.753 133.500 C 68.850 130.884, 68.550 127.704, 73.250 128.175 C 75.617 128.412, 76.500 128.092, 76.500 127 C 76.500 125.066, 69.017 124.383, 67.246 126.154 M 81.484 128.250 C 81.151 130.037, 81.018 134.196, 81.189 137.490 C 81.436 142.252, 81.859 143.549, 83.250 143.814 C 84.747 144.099, 85 143.341, 85 138.573 C 85 135.508, 85.407 133, 85.905 133 C 86.403 133, 87.978 134.993, 89.406 137.429 C 92.764 143.161, 94.708 145.049, 96.529 144.351 C 98.622 143.547, 98.696 125, 96.607 125 C 94.748 125, 94.006 127.202, 93.969 132.832 L 93.938 137.500 91.545 133.500 C 87.467 126.682, 85.974 125, 83.999 125 C 82.637 125, 81.917 125.931, 81.484 128.250 M 104.455 127.455 C 102.582 129.327, 102 130.967, 102 134.373 C 102 140.251, 102.681 141.784, 106.072 143.537 C 114.584 147.939, 122.764 140.637, 120.024 131.083 C 118.765 126.693, 116.399 125.070, 111.205 125.032 C 107.950 125.008, 106.314 125.595, 104.455 127.455 M 127.750 126.080 C 126.787 126.641, 125.325 128.405, 124.500 130 C 119.782 139.123, 128.326 148.076, 137.552 143.677 C 143.177 140.994, 144.307 132.330, 139.694 127.250 C 137.470 124.800, 131.031 124.169, 127.750 126.080 M 146 134.500 C 146 142.278, 146.272 144, 147.500 144 C 148.481 144, 149 143.018, 149 141.158 C 149 138.711, 149.553 138.151, 152.984 137.123 C 162.269 134.341, 160.355 125, 150.500 125 L 146 125 146 134.500 M 107.750 129.080 C 106.500 129.808, 106 131.365, 106 134.527 C 106 138.113, 106.462 139.257, 108.433 140.548 C 114.200 144.327, 120.005 135.005, 115 130 C 112.808 127.808, 110.448 127.509, 107.750 129.080 M 129.637 129.506 C 127.298 131.845, 126.708 134.882, 127.991 137.978 C 129.416 141.418, 132.662 142.452, 135.728 140.443 C 138.796 138.432, 139.028 130.620, 136.066 129.035 C 133.378 127.597, 131.401 127.742, 129.637 129.506 M 149.362 129.500 C 148.464 131.839, 149.731 134, 152 134 C 154.544 134, 155.651 131.489, 153.989 129.487 C 152.402 127.574, 150.098 127.580, 149.362 129.500" stroke="none" fill="#f4f4f4" fill-rule="evenodd"/></svg>