<svg xmlns="http://www.w3.org/2000/svg" width="1920" height="1920" viewBox="0 0 1920 1920" version="1.1"><path d="M 937 343.623 C 859.272 350.677, 786.229 388.767, 730.271 451.428 C 685.543 501.512, 663.049 547.854, 653.787 609 C 652.055 620.436, 652.063 670.139, 653.799 683.500 C 657.474 711.782, 665.807 746.987, 673.456 766.550 C 692.835 816.110, 734 867.719, 784.165 905.342 C 821.879 933.629, 857.536 948.094, 910.079 956.422 C 934.948 960.364, 942.452 960.897, 968 960.538 C 993.715 960.176, 1009.233 958.340, 1031.562 953.017 C 1095.652 937.738, 1154.899 898.381, 1201.695 840 C 1258.622 768.980, 1281.240 682.815, 1264.957 599 C 1250.932 526.808, 1207.793 458.871, 1144 408.513 C 1115.747 386.211, 1082.177 368.199, 1048 357.005 C 1018.717 347.414, 997.647 343.996, 965 343.542 C 952.075 343.362, 939.475 343.398, 937 343.623 M 685.834 922.925 C 658.271 941.434, 593.605 1001.378, 567.627 1032.500 C 525.723 1082.703, 496.149 1133.663, 473.355 1194.945 C 466.164 1214.278, 460.700 1231.792, 451.034 1266.500 C 446.591 1282.450, 441.530 1300.611, 439.785 1306.858 L 436.614 1318.217 444.568 1325.858 C 448.943 1330.061, 461.967 1342.475, 473.511 1353.445 C 485.055 1364.415, 499.225 1377.945, 505 1383.513 C 561.924 1438.394, 617.767 1478.424, 682.735 1510.918 C 772.224 1555.677, 861.374 1576.958, 959.500 1576.987 C 1065.653 1577.017, 1167.017 1550.744, 1261.500 1498.710 C 1316.041 1468.672, 1364.162 1432.557, 1415 1383.505 C 1420.775 1377.933, 1435.175 1364.200, 1447 1352.987 C 1458.825 1341.773, 1471.848 1329.356, 1475.939 1325.394 L 1483.378 1318.189 1480.211 1306.844 C 1478.469 1300.605, 1473.409 1282.450, 1468.966 1266.500 C 1459.300 1231.792, 1453.836 1214.278, 1446.645 1194.945 C 1423.851 1133.663, 1394.277 1082.703, 1352.373 1032.500 C 1319.835 993.518, 1235.373 918, 1224.312 918 C 1218.887 918, 1191.384 935.155, 1165.496 954.688 C 1113.857 993.649, 1061.909 1015.095, 998.500 1023.630 C 988.984 1024.911, 978.665 1025.380, 960 1025.380 C 941.335 1025.380, 931.016 1024.911, 921.500 1023.630 C 858.091 1015.095, 806.143 993.649, 754.504 954.688 C 728.616 935.155, 701.113 918, 695.688 918 C 694.302 918, 689.867 920.216, 685.834 922.925" stroke="none" fill="#040404" fill-rule="evenodd"/><path d="M 0 960.001 L 0 1920.001 960.250 1919.751 L 1920.500 1919.500 1920.751 959.750 L 1921.001 -0 960.501 -0 L 0 0 0 960.001 M 0.498 960.500 C 0.498 1488.500, 0.611 1704.350, 0.750 1440.167 C 0.889 1175.985, 0.889 743.985, 0.750 480.167 C 0.611 216.350, 0.498 432.500, 0.498 960.500 M 937 343.623 C 859.272 350.677, 786.229 388.767, 730.271 451.428 C 685.543 501.512, 663.049 547.854, 653.787 609 C 652.055 620.436, 652.063 670.139, 653.799 683.500 C 657.474 711.782, 665.807 746.987, 673.456 766.550 C 692.835 816.110, 734 867.719, 784.165 905.342 C 821.879 933.629, 857.536 948.094, 910.079 956.422 C 934.948 960.364, 942.452 960.897, 968 960.538 C 993.715 960.176, 1009.233 958.340, 1031.562 953.017 C 1095.652 937.738, 1154.899 898.381, 1201.695 840 C 1258.622 768.980, 1281.240 682.815, 1264.957 599 C 1250.932 526.808, 1207.793 458.871, 1144 408.513 C 1115.747 386.211, 1082.177 368.199, 1048 357.005 C 1018.717 347.414, 997.647 343.996, 965 343.542 C 952.075 343.362, 939.475 343.398, 937 343.623 M 685.834 922.925 C 658.271 941.434, 593.605 1001.378, 567.627 1032.500 C 525.723 1082.703, 496.149 1133.663, 473.355 1194.945 C 466.164 1214.278, 460.700 1231.792, 451.034 1266.500 C 446.591 1282.450, 441.530 1300.611, 439.785 1306.858 L 436.614 1318.217 444.568 1325.858 C 448.943 1330.061, 461.967 1342.475, 473.511 1353.445 C 485.055 1364.415, 499.225 1377.945, 505 1383.513 C 561.924 1438.394, 617.767 1478.424, 682.735 1510.918 C 772.224 1555.677, 861.374 1576.958, 959.500 1576.987 C 1065.653 1577.017, 1167.017 1550.744, 1261.500 1498.710 C 1316.041 1468.672, 1364.162 1432.557, 1415 1383.505 C 1420.775 1377.933, 1435.175 1364.200, 1447 1352.987 C 1458.825 1341.773, 1471.848 1329.356, 1475.939 1325.394 L 1483.378 1318.189 1480.211 1306.844 C 1478.469 1300.605, 1473.409 1282.450, 1468.966 1266.500 C 1459.300 1231.792, 1453.836 1214.278, 1446.645 1194.945 C 1423.851 1133.663, 1394.277 1082.703, 1352.373 1032.500 C 1319.835 993.518, 1235.373 918, 1224.312 918 C 1218.887 918, 1191.384 935.155, 1165.496 954.688 C 1113.857 993.649, 1061.909 1015.095, 998.500 1023.630 C 988.984 1024.911, 978.665 1025.380, 960 1025.380 C 941.335 1025.380, 931.016 1024.911, 921.500 1023.630 C 858.091 1015.095, 806.143 993.649, 754.504 954.688 C 728.616 935.155, 701.113 918, 695.688 918 C 694.302 918, 689.867 920.216, 685.834 922.925" stroke="none" fill="#fbfbfb" fill-rule="evenodd"/></svg>